<?xml version="1.0" encoding="UTF-8"?>
<svg id="_レイヤー_1" data-name="レイヤー 1" xmlns="http://www.w3.org/2000/svg" width="386.89" height="63.44" viewBox="0 0 386.89 63.44">
  <defs>
    <style>
      .cls-1 {
        fill: #fff;
      }

      .cls-2 {
        fill-rule: evenodd;
      }

      .cls-2, .cls-3 {
        fill: #231815;
      }

      .cls-4 {
        fill: #323230;
      }

      .cls-5 {
        fill: #ffe100;
      }

      .cls-6 {
        fill: #fecc1f;
      }
    </style>
  </defs>
  <g>
    <path class="cls-4" d="m258.81,47.52l.1,3.43-.14.22c-2.21.17-4.54.26-7.56.26-5.76,0-8.52-1.75-8.52-5.52,0-2.18,1.8-4.27,4.34-6.07-1.18-1.68-2.45-3.79-3.5-5.71l.05-.24,2.9-1.51.24.07c1.06,1.92,2.26,3.94,3.41,5.59,2.18-1.1,4.63-2.14,7.03-3.02l.24.1,1.42,3.14-.1.19c-2.09.7-4.22,1.51-5.62,2.11-.38.31-.6.62-.65,1.2-.07.96-.98,1.56-1.73,1.56-.65,0-1.18-.24-1.66-.65-1.87,1.08-2.71,2.09-2.71,3.22,0,1.61,2.04,1.97,4.87,1.97,2.11,0,4.46-.17,7.39-.48l.19.14Z"/>
    <path class="cls-4" d="m279.63,47.52l.1,3.43-.14.22c-2.21.17-4.54.26-7.56.26-5.76,0-8.52-1.75-8.52-5.52,0-2.18,1.8-4.27,4.34-6.07-1.18-1.68-2.45-3.79-3.5-5.71l.05-.24,2.9-1.51.24.07c1.06,1.92,2.26,3.94,3.41,5.59,2.18-1.1,4.63-2.14,7.03-3.02l.24.1,1.42,3.14-.1.19c-2.09.7-4.22,1.51-5.62,2.11-.38.31-.6.62-.65,1.2-.07.96-.98,1.56-1.73,1.56-.65,0-1.18-.24-1.66-.65-1.87,1.08-2.71,2.09-2.71,3.22,0,1.61,2.04,1.97,4.87,1.97,2.11,0,4.46-.17,7.39-.48l.19.14Zm-2.18-14.98l1.25-.89.24-.02c.89.74,1.73,1.58,2.45,2.54l-.02.24-1.32.94h-.24c-.74-.98-1.42-1.78-2.38-2.59l.02-.22Zm2.26-1.51l1.22-.89.24-.02c.89.74,1.66,1.51,2.38,2.47l-.02.24-1.25.91h-.24c-.74-.98-1.39-1.68-2.35-2.5l.02-.22Z"/>
    <path class="cls-4" d="m286.74,32.26l3.19.36.17.19c-.05,1.56-.34,3.46-.74,5.47-.36,1.78-.74,3.5-.74,5.5,0,1.03.1,2.02.29,2.81.05.14.1.24.19.24s.19-.07.34-.22c.46-.46.89-.91,1.61-1.85l.65.36c-.74,2.38-1.03,3.17-1.03,4.13v.53c0,1.32-.6,1.94-1.78,1.94-.94,0-1.73-.7-2.21-1.49-.67-1.13-1.44-3.24-1.44-6.5,0-2.14.48-5.21.84-7.1.29-1.54.43-2.81.48-4.22l.19-.14Zm6.07,18.55c2.14-.84,3.5-2.11,4.3-3.46.53-.86.82-2.18.82-4.44,0-.74,0-1.82-.05-2.93-1.58.07-3.24.1-4.99.12l-.14-.22-.07-2.93.19-.12c1.61,0,3.29-.05,4.87-.14-.05-1.37-.14-2.83-.24-4.37l.19-.14,3.29-.07.17.17c.07,1.42.14,2.78.19,4.15,1.22-.1,2.33-.24,3.34-.36l.17.14.14,2.98-.14.17c-1.06.14-2.18.29-3.41.38.05,1.22.07,2.45.07,3.24,0,3.41-.48,5.23-1.32,6.53-.86,1.32-2.18,2.62-4.06,3.41-.07.02-.14.05-.19.05-.1,0-.22-.05-.31-.12l-2.81-2.04Z"/>
    <path class="cls-4" d="m307.6,46.16c1.9,1.3,3.46,2.71,4.99,4.73v.19l-2.47,2.23h-.22c-1.54-2.14-3.34-3.94-4.87-4.99v-.22l2.33-1.92.24-.02Z"/>
    <path class="cls-6" d="m329.34,33.28l-2.84,3.74-.43.11c-1.69-1.37-3.6-2.59-5.04-3.35l-.11-.29,2.81-3.42.43-.11c1.37.58,3.42,1.8,5.08,2.95l.11.36Zm-3.56,20.81l-4.21-2.05-.14-.36c1.69-3.46,2.84-6.73,4.32-12.17l3.82,2.27c.25.14.36.36.36.61,0,.07,0,.14-.04.25-1.01,3.96-1.91,6.69-3.74,11.23l-.36.22Zm5.29-29.48l-3.1,3.6-.43.07c-1.66-1.48-3.46-2.7-5.15-3.56l-.07-.29,3.06-3.28.43-.07c1.73.83,3.49,1.91,5.18,3.17l.07.36Zm16.7,29.37v-1.84h-9.65v2.05h-5.26l.22-7.74v-2.92l-.14-3.89.25-.25,4.61.11h2.45v-4.82h-4.9l-4.82.11-.29-.22v-4l.25-.22,4.86.11h4.9v-3.96c-2.09.22-4.1.47-5.83.47h-.18c-.36,0-.58-.11-.76-.43l-2.05-3.71c6.55-.25,14.29-1.08,18.25-2.12l.4.04c1.44,1.08,2.52,2.02,3.96,3.46l-.07.36c-2.34.5-5.33.97-8.46,1.37v4.54h5.26l4.9-.11.22.18v4.07l-.22.18-4.9-.11h-5.26v4.82h2.77l4.54-.11.29.25-.14,3.89v3.06l.22,7.38h-5.4Zm-9.65-5.98h9.65v-4.39h-9.65v4.39Z"/>
    <path class="cls-4" d="m362.56,38.76l-4.08.07-.17-.19v-2.81l.19-.14,4.06.07h3c.05-1.3.05-2.78.05-4.49l.17-.17h3.58l.17.17c0,1.68-.02,3.17-.07,4.49h4.03l4.18-.07.19.17c-.1,5.33-.19,9.48-.58,12.43-.38,3.12-2.09,4.42-4.85,4.42h-1.61c-.41,0-.58-.14-.7-.46l-1.42-3.31c.82.05,1.42.07,1.99.07.31,0,.62-.02.96-.02,1.2-.02,1.75-.48,1.97-2.38.22-1.99.36-4.73.38-7.85h-4.7c-.31,4.46-.98,6.43-2.14,8.35-1.56,2.64-3.62,4.34-6.72,5.74-.12.05-.22.1-.31.1-.07,0-.14-.05-.24-.12l-2.59-2.33c3.19-1.2,5.21-3.02,6.41-5.02.94-1.54,1.46-3.17,1.73-6.72h-2.88Z"/>
    <path class="cls-4" d="m386.89,49.92c0,1.92-1.49,3.38-3.41,3.38s-3.41-1.46-3.41-3.38,1.51-3.38,3.41-3.38,3.41,1.46,3.41,3.38Zm-5.4,0c0,1.13.86,1.99,1.99,1.99s1.99-.86,1.99-1.99-.84-1.99-1.99-1.99-1.99.86-1.99,1.99Z"/>
  </g>
  <g>
    <g>
      <path class="cls-2" d="m129.32,33.14c.82.92,2.16,1.11,2.97,2.01.32.36.67,1.08,1.05,1.76.53.95.97,1.67.88,3.24,1.49.16,3.3-.38,4.98-.09.64.11,1.72.81,2.55,1.22.85.43,1.86.81,2.45,1.23.7.49,1.69,1.47,1.84,2.18.44,2.07-1.09,2.89-2.71,2.62-1.26-.19-1.88-1.11-2.97-1.75-1.48-.84-3.1-.95-5.08-1.13.5,1.36-.02,2.75-.26,4.2-.14.84-.04,1.7-.18,2.46-.25,1.29-.91,2.71-1.4,3.94-.54,1.33-1.12,2.58-1.85,3.5-.38,2.07-3.5,3.58-5.77,3.42-.56-.04-1.29-.44-2.01-.7-.73-.27-1.49-.43-1.92-.7-1.66-1.05-2.94-3.99-3.86-5.95-1.08-2.3-1.98-4.86-2.71-7-.07-.36.14-.45.08-.79-.67-.84-1.09-1.94-1.57-2.98.2-.94-.34-1.52.18-2.1,1.41.22,1.98,1.56,2.71,2.53.33.45.77.99,1.14,1.49.39.55.62,1.22,1.04,1.57.5.43,1.25.56,1.75.97.41.33.8.88,1.13,1.31.12.15.16.4.27.53.31.34.8.53,1.14.88,1.07,1.12,1.59,2.4,3.24,2.98,2.14-2.1,3.25-5.65,3.24-9.63-4.6.16-8.56-.3-11.81-1.66-.81-.34-1.63-1.08-2.46-1.31-.62-.17-1.81.13-1.92-.44-.13-.7,1.06-.61,1.22-.61.9,0,2.09.53,3.33.52.64-.01,1.5-.25,2.45-.18,2.68.22,6.12-.15,8.93-.34-.16-.56-.51-1.13-1.05-1.32-.45-.16-.9-.02-1.31-.09-1.18-.19-2.97-.88-3.68-1.66-.27-.29-.59-.91-.87-1.4-.28-.47-.69-1.03-.79-1.4-.88-3.12,4.12-1.97,3.31-5.25-1.44-.6-3.16.2-4.81-.17-.71-.15-1.44-1.1-1.84-1.66-.43-.59-1.33-1.56-1.14-2.37.27-1.17,2.61-.7,3.77-1.13,1.22-.47,1.59-1.43,2.45-1.84,1.12-.55,2.54-.69,3.68-1.14.58-.23,1.06-.49,1.57-.79,1.06-.62,2.32-1.19,3.77-1.49.59.09.74.21,1.23-.09.63.03,1.01-.07,1.49.18.09.05.21.3.34.35.41.16.93.11,1.23.26,2.12,1.11,1.34,5.11-.27,6.48-.55.46-1.31.73-1.93,1.22-1.03.83-1.85,1.98-2.8,2.89-1.06,1.02-2.22,2.02-2.45,3.24Z"/>
      <path class="cls-2" d="m88.8,40.41c.17-.17,1.59-.19,2.28,0,.92.26,2.1,1.37,3.32,2.36,1.49,1.21,4.13,3.16,2.81,5.96-.18.36-.54.92-.97,1.04-.88.25-2.64-.67-3.15-1.23-.61-.66-1.19-1.87-2.01-2.98-.86-1.13-1.72-2.19-2.01-2.96-.23-.59-.54-1.97-.27-2.19Z"/>
      <path class="cls-2" d="m179.02,29.11c-1.6-.06-3.49.36-5.07-.26-.73-.28-2.07-1.18-2.63-1.75-1.06-1.05-1.58-2.71-.62-4.46,2.32-.67,4.94-.74,7.71-1.14,3.1-.44,6.14-1.13,8.92-2.1,1.77-.61,3.53-2.2,5.6-1.4.99.39,1.86,1.81,2.53,2.71.39.52.72,1.05.97,1.67.22.53.57,1.34.52,2.1-.07,1.1-.89,2.24-1.49,3.07-.54.76-1.4,1.96-2.18,2.27-1.23.5-3.39.18-5.08.36-.26.02-.54.15-.78.17-.35.03-.84-.11-1.22,0-.5.15-.65.81-1.05.97-.39.15-.96.01-1.4.08-1.11.17-1.67.6-2.53,1.14-1.38.86-2.62,1.79-3.86,2.89.62.21,1.49.19,2.46-.08.46-.13.86-.43,1.31-.61,1.76-.75,4.09-1.43,6.83-1.15.47.05,1.11.14,1.58.36,1.35.62,2.62,3.54.87,4.81-3.82-.16-6.29,1.05-9.63,1.4-.7.61-1.22,1.4-1.84,2.1.6.22,1.22-.02,1.75-.18.64-.18,1.2-.29,1.84-.44,1.19-.25,2.1-.97,3.16-1.39.46-.18,1.11-.34,1.75-.52,2.07-.63,2.93-.19,4.3,1.05,1.03.95,1.7,2.21,2.54,3.41.58.83,1.09,1.43,1.13,2.45.09,1.8-.85,2.91-2.53,2.36-.85-.27-1.32-1.18-1.85-2.01-.83-1.35-1.11-2.45-2.62-2.8-2.19.81-4.65,1.35-6.83,2.19.77.35,1.58,1.09,1.13,2.37,1.18.09,3.08-1,4.55-.36.56.25,1.18,1.45.96,2.54-.09.48-.71,1.29-1.13,1.58-.47.3-1.43.45-2.28.69-1.27.35-2.12.57-3.49.7.24,1.91,3.86.31,5.25-.09,1.46-.41,3.2-.89,4.28-1.22.79-.24,1.65-.72,2.89-.96,1.11-.22,2.85-.39,2.97.52.06.38-.34.67-.7,1.23-.28.43-.42.97-.62,1.22-1.27,1.86-3.32,2.2-6.11,3.06-2.54.78-4.22,2.56-6.4,2.8-2.36.27-3.29-.85-4.46-1.84-.04-.3-.38-.17-.44-.25-.02-.57-.76-.77-1.05-1.41-.32-.7-.29-1.6-.7-2.28-.98-.54-2.48-.4-3.59-1.05-.59-.35-1.56-1.42-1.4-2.36.19-1.12,1.73-.91,3.07-1.06.42-.05.89-.25,1.31-.35.49-.11.98-.1,1.31-.26.89-.41,1.54-1.67,2.19-2.36-1.19-.17-2.38.81-3.5.7-.79-.08-2.47-1.68-2.88-2.27-.73-1.04-1.13-2.56.69-2.62,1.89-.94,3.49-2.18,4.99-3.51-.41-.32-.74-.72-1.15-1.05,0-.85-.58-1.1-.61-1.92-.36-.11-.4.39-.52.52-.42.48-1.08.82-1.58,1.32-.17.17-.2.44-.35.61-.36.42-.95.84-1.4,1.32-.59.61-1.18,1.26-1.75,1.92-1.09,1.28-2.33,2.63-3.24,4.11-.99,1.61-1.66,3.14-2.36,4.99-.34.91-.63,1.88-.79,2.89-.16.94-.12,2.12-.52,3.06-.49,1.11-3.06,2.16-4.11.97-.41.04-.79-.19-.96-.44-.19-.27,0-.56-.1-.88-.09-.28-.45-.52-.6-.78-.21-.37-.24-.69-.44-.97.66-4.57,2.77-8.2,4.99-11.38.74-1.06,1.68-1.97,2.45-2.97.8-1.06,1.56-2.02,2.45-2.98.84-.92,1.87-1.7,2.8-2.63,1.8-1.8,3.71-3.65,6.03-4.81.16-.08-.07-.38.09-.17.76-.37,1.46-.82,2.27-1.15Z"/>
      <path class="cls-2" d="m67.1,50.04c.04-.14.09,0,.08.08,1.06-.71,1.9-1.66,2.9-2.71.33-.35.74-.74.79-1.05.11-.76-.5-1.22-1.14-1.66-.59-.4-1.07-.86-1.49-1.23-.97-.87-2.57-1.46-2.1-3.14,1.09-.79,3.15-.75,4.9-.62.33-.11.5-.37.87-.44.34-.78.52-1.66.79-2.53.11-.35.35-.62.44-.97.12-.48.05-1.01.18-1.48.36-1.29.93-2.39,1.49-3.42-.89-.63-2.03-.78-2.98-1.4-.38-.25-.84-.65-1.23-.97-.8-.65-1.3-1.14-1.84-2.11-.22-.39-.52-.62-.26-1.39.8-.5,1.86-.48,2.89-.61,1.83-.23,3.79-.52,5.95-.87.96-.16,2-.3,2.72-.78.48-.33.68-.92,1.22-1.14.57-.23,1.8-.22,2.54.08.6.25,1.18.92,1.93,1.57.71.64,1.56,1.1,1.92,1.58.46.61.97,1.96.79,2.72-.33,1.34-2.54,1.65-3.68,2.35-.41.25-.77.63-1.32.7-1.22,2.45-3.23,4.12-4.11,6.92.87.26,1.71.01,2.54.17.52.11,1.15.54,1.74.79.71.31,1.53.54,1.93.97.58.61.92,1.52,1.23,2.27-.12,1.64-1.09,2.23-2.53,3.07-1.84,1.05-2.31,1.99-4.46,2.89-.81.34-1.63.47-1.75.87-.41,1.29,1.04,1.07,1.84.97,1.05-.14,1.91-.12,2.79-.35.81-.21,1.76-.76,2.63-.79.66-.01,2.4.31,3.16.62,1.34.55,2.8,2.06,2.97,3.15.25,1.65-.9,2.13-2.01,2.72-1.6.84-5.7-.04-7.78.62-.3.1-.59.35-.88.43-.55.17-1.21.13-1.84.27-1.58.36-2.95,1.22-4.56,1.75-1.05.35-2.33.56-3.59.61-1.27.05-2.89,0-3.85-.35-.29-.11-.73-.49-1.13-.71-1.03-.55-2.35-1.63-1.93-3.58.14-.7.95-1.37,1.49-1.92.57-.6,1.12-1.16,1.75-1.58.06-.07.14-.24,0-.27v-.08Z"/>
    </g>
    <g>
      <path class="cls-5" d="m35.78,29s7.08.7,10.01,1.82c0,0,4.61,1.62,7.04,3.76,0,0,2.4,1.82,2.4,4.66,0,0,.15,2.79-1.91,3.96,0,0-1.73,1.06-4.37.73l.02.02c-2.61,12.04-10.93,18.78-20.78,18.78s-18.19-6.76-20.8-18.82l-.09.02c-2.96.58-5.01-.91-5.01-.91-1.5-1.02-1.57-2.92-1.57-2.92-.14-3.35,3.05-5.74,3.05-5.74,2.71-2.24,7.2-4.33,7.2-4.33,3.48-1.57,7.48-1.63,7.48-1.63.83-.04,1.04-.32,1.04-.32.41-.34.16-1.27.16-1.27h0c-.48-1.1-.74-2.32-.74-3.59,0-5.05,4.15-9.14,9.27-9.14,3.96,0,7.34,2.45,8.75,6.32l3.57.21-2.68,2.67,1.94,2.51s-.74.12-3.01.66c0,0-.42,3.27-3.87,5.59"/>
      <path class="cls-1" d="m29.88,17.23c-2.11,0-3.82,1.8-3.82,4s1.71,3.99,3.82,3.99,3.83-1.79,3.83-3.99-1.72-4-3.83-4Z"/>
      <path class="cls-1" d="m9.93,23.36c.74-2.55,4.49-5.68,4.49-5.68.35-.31,1.89-1.58,1.89-1.58,1.28-.88,1.01-2.77,1.01-2.77,0-1.15.84-1.54.84-1.54.87-.66,2.51.39,2.51.39,1.1.83,2.51.53,2.51.53,1.45-.39,1.93-1.58,1.93-1.58.4-.92,1.1-2.68,1.1-2.68.71-1.71,2.02-1.58,2.02-1.58,0,0,1.32-.13,2.03,1.58,0,0,.7,1.76,1.09,2.68,0,0,.49,1.19,1.94,1.58,0,0,1.41.31,2.51-.53,0,0,1.62-1.05,2.51-.4,0,0,.84.4.84,1.54,0,0-.27,1.89,1.01,2.77,0,0,1.54,1.28,1.89,1.59,0,0,3.74,3.12,4.49,5.67,0,0,.45,1.42,2.03,1.23C45.57,11.56,37.58.71,28.18.71S10.8,11.55,7.81,24.58c1.66.25,2.12-1.21,2.12-1.21Z"/>
      <path class="cls-1" d="m41.12,41.71c-1.32,0-2.51,1.12-2.51,1.12-.18.14-1.89,1.65-1.89,1.65-1.54,1.63-2.42,1.38-2.42,1.38-.66,0-1.94-1.3-1.94-1.3-.61-.65-1.98-1.97-1.98-1.97-.97-1.06-2.2-.97-2.2-.97,0,0-1.23-.08-2.2.97,0,0-1.36,1.31-1.98,1.97,0,0-1.27,1.3-1.94,1.3,0,0-.88.25-2.42-1.38,0,0-1.71-1.52-1.89-1.65,0,0-1.19-1.12-2.5-1.12,0,0-1.26-.04-2.64,1.32,0,0-3.13,2.51-4.5,3.63,3.21,10.34,10.99,16.08,20.07,16.08s16.87-5.75,20.07-16.09c-1.37-1.1-4.5-3.62-4.5-3.62-1.39-1.36-2.64-1.32-2.64-1.32Z"/>
      <path class="cls-3" d="m31.25,18.06c-1.38,0-2.46,1.43-2.46,3.24s1.08,3.25,2.46,3.25,2.45-1.43,2.45-3.24-1.08-3.25-2.45-3.25Z"/>
      <path class="cls-3" d="m33.82,17.98c-.2-.23-.56-.26-.8-.06-.2.18-.37.31-.51.41-.69-.68-1.61-1.11-2.63-1.11-2.11,0-3.83,1.8-3.83,4.01,0,1.67,1,3.18,2.49,3.77.07.03.14.04.21.04.22,0,.44-.13.52-.36.11-.29-.03-.61-.31-.73-1.07-.42-1.78-1.5-1.78-2.71,0-1.59,1.21-2.88,2.7-2.89.74,0,1.39.32,1.89.83,0,.05.01.1.04.14.06.15.18.25.31.31.3.46.47,1.02.47,1.61,0,.66-.2,1.29-.59,1.81-.19.25-.14.6.11.79.25.18.6.13.79-.12.53-.71.82-1.56.82-2.48,0-.73-.2-1.41-.53-2,.17-.12.36-.27.58-.46.23-.21.25-.56.05-.8Z"/>
      <path class="cls-1" d="m32.24,20.5c.09.19.02.41-.16.5l-.06.04c-.19.1-.41.02-.5-.16l-.48-.94c-.09-.18-.02-.41.16-.5l.07-.03c.18-.1.4-.02.5.16l.48.93Z"/>
      <g>
        <path class="cls-3" d="m28.19,63.44c-10.47,0-18.6-7.16-21.34-18.72-2.9.35-4.89-1.06-4.98-1.13C.12,42.4,0,40.23,0,40.14c-.14-3.59,3.05-6.11,3.33-6.32,2.75-2.28,7.15-4.33,7.34-4.42,3.59-1.61,7.6-1.69,7.77-1.69.36-.02.52-.1.56-.12,0,0,0,0,0,0,.03-.1.02-.34-.02-.53-.51-1.21-.77-2.5-.77-3.82,0-5.43,4.47-9.85,9.97-9.85,4.13,0,7.64,2.43,9.24,6.36l3.11.18c.28.02.52.2.62.46.1.26.04.55-.16.74l-2.24,2.24,1.55,2.01c.16.2.19.46.11.7-.09.23-.3.39-.55.44,0,0-.66.1-2.51.54-.08.33-.23.8-.47,1.36,2.09.24,6.83.86,9.16,1.75.17.06,4.72,1.67,7.24,3.87.27.22,2.65,2.16,2.66,5.2.01.3.06,3.25-2.26,4.59-.06.03-1.67,1-4.14.88-2.74,11.58-10.87,18.75-21.35,18.75ZM7.39,43.21c.13,0,.26.04.37.11.16.1.28.27.32.45,2.43,11.27,10.14,18.27,20.11,18.27,9.9,0,17.58-6.91,20.06-18.06,0-.11,0-.21.05-.31.13-.29.42-.46.73-.43,2.35.29,3.91-.63,3.93-.63,1.67-.96,1.56-3.3,1.56-3.32v-.04c0-2.46-2.11-4.09-2.12-4.1-.01,0-.03-.02-.04-.03-2.3-2.02-6.76-3.61-6.81-3.63-2.41-.92-7.82-1.56-9.4-1.74-.62.95-1.54,2-2.88,2.9-.32.22-.76.12-.98-.2-.22-.32-.14-.76.19-.97,1.3-.88,2.14-1.9,2.67-2.79.01-.03.03-.06.04-.08.72-1.23.85-2.21.85-2.23.04-.29.25-.53.54-.59.83-.2,1.46-.34,1.92-.44l-1.24-1.6c-.22-.28-.19-.68.05-.93l1.57-1.58-2-.12c-.28,0-.52-.19-.62-.46-1.32-3.61-4.42-5.86-8.09-5.86-4.72,0-8.56,3.78-8.56,8.44,0,1.15.23,2.26.69,3.31.02.04.03.07.04.12.08.32.27,1.36-.36,1.94-.18.18-.6.47-1.5.52-.06,0-3.92.08-7.23,1.57-.03,0-4.44,2.06-7.04,4.22,0,.01-.02.02-.03.03-.02.02-2.89,2.23-2.78,5.15,0,0,.1,1.56,1.27,2.37.09.07,1.87,1.31,4.46.8l.07-.02c.05-.01.12-.02.17-.02Z"/>
        <path class="cls-3" d="m8.18,25.32h0c-.16,0-.32-.01-.48-.04-.19-.03-.37-.14-.47-.3-.11-.16-.15-.36-.1-.55,1.53-6.65,4.34-12.72,7.93-17.12C18.95,2.52,23.5,0,28.18,0s9.23,2.52,13.14,7.31c3.59,4.4,6.41,10.47,7.93,17.12.05.19,0,.4-.11.56-.11.16-.29.27-.49.29-.12.01-.25.03-.37.03-1.48,0-2.23-1.13-2.42-1.73-.57-1.94-3.27-4.52-4.27-5.35-.33-.29-1.68-1.41-1.87-1.56-1.46-1.03-1.33-3-1.29-3.37-.02-.62-.4-.85-.45-.87-.04-.02-.07-.04-.1-.06-.07-.05-.17-.08-.3-.08-.5,0-1.15.34-1.38.49-1.35,1.01-2.98.65-3.06.64-.02,0-.02,0-.03,0-1.77-.48-2.38-1.94-2.41-2-.39-.91-1.07-2.62-1.1-2.69-.43-1.06-1.1-1.14-1.3-1.14-.06,0-.08,0-.14,0-.19,0-.87.08-1.3,1.15-.03.07-.7,1.77-1.1,2.7-.02.05-.63,1.5-2.4,1.98-.02,0-.03,0-.03,0-.08.02-1.71.37-3.07-.64-.23-.15-.88-.48-1.38-.48-.13,0-.24.02-.3.07-.04.03-.08.05-.13.07-.03.02-.42.24-.43.86.04.38.17,2.34-1.29,3.37-.19.15-1.54,1.28-1.86,1.55-.05.04-3.59,3.03-4.27,5.35-.19.61-.95,1.75-2.43,1.75ZM28.18,1.41c-8.23,0-16.15,9.14-19.46,22.36.4-.21.53-.62.53-.62.8-2.71,4.55-5.88,4.71-6.01.34-.3,1.83-1.53,1.89-1.59.01,0,.03-.03.05-.03.89-.62.71-2.08.71-2.1,0-.03,0-.06,0-.09,0-1.19.71-1.89,1.17-2.14.31-.21.67-.32,1.09-.32,1.02,0,2.06.65,2.17.73.01,0,.02.02.04.03.77.58,1.78.43,1.92.41,1.06-.3,1.43-1.14,1.44-1.17.39-.91,1.09-2.66,1.1-2.67.62-1.5,1.75-2.03,2.61-2.03.03,0,.05,0,.07,0,.02,0,.04,0,.07,0,.86,0,2,.54,2.61,2.03.01.02.71,1.77,1.09,2.67.02.04.39.88,1.45,1.17.12.03,1.15.19,1.92-.4.01-.01.03-.02.04-.03.11-.07,1.15-.73,2.17-.73.42,0,.78.1,1.1.32.46.25,1.17.95,1.17,2.14,0,.03,0,.07,0,.09,0,.02-.18,1.48.71,2.1.02,0,.03.02.06.03.06.05,1.55,1.29,1.9,1.6.15.12,3.9,3.28,4.7,6.01.01.03.13.33.42.54C44.31,10.52,36.41,1.41,28.18,1.41Z"/>
        <path class="cls-3" d="m28.19,63.44c-4.69,0-9.08-1.49-12.68-4.31-3.68-2.9-6.48-7.14-8.07-12.27-.08-.28,0-.57.23-.76,1.3-1.05,4.17-3.36,4.48-3.6,1.46-1.43,2.83-1.5,3.09-1.5.01,0,.03,0,.04,0h0c1.46,0,2.74,1.11,2.94,1.29.28.23,1.51,1.31,1.9,1.66.01.02.02.03.04.04,1.01,1.07,1.62,1.17,1.75,1.18.06-.03.07,0,.16,0,.22-.03.92-.57,1.43-1.09.58-.62,1.82-1.82,1.97-1.98,1.02-1.09,2.27-1.18,2.64-1.18.03,0,.05,0,.07,0h.07c.37,0,1.62.09,2.63,1.18.16.15,1.4,1.36,2,1.99.51.52,1.2,1.04,1.44,1.07.09,0,.08-.02.14,0,.15-.02.76-.13,1.75-1.18.01-.02.03-.03.04-.04.39-.34,1.62-1.43,1.9-1.66.2-.18,1.48-1.3,2.97-1.3h0c.28,0,1.64.07,3.11,1.49.31.25,3.18,2.56,4.48,3.61.22.18.32.48.23.76-1.59,5.13-4.38,9.37-8.07,12.26-3.6,2.83-7.98,4.32-12.68,4.32Zm-19.26-16.55c3.11,9.49,10.28,15.14,19.26,15.14s16.15-5.65,19.25-15.14c-1.49-1.21-4.12-3.32-4.12-3.32-.02-.02-.03-.03-.05-.05-1.12-1.1-2.09-1.11-2.13-1.11-1.02-.01-2.03.91-2.03.93-.02.02-.04.04-.06.05-.13.1-1.13.99-1.82,1.59-1.26,1.32-2.21,1.6-2.78,1.6-.09,0-.15,0-.21-.01-.85-.06-1.92-1.07-2.36-1.51-.61-.65-1.95-1.96-1.97-1.96-.01-.01-.02-.03-.03-.04-.65-.7-1.45-.74-1.61-.74h-.03s-.06,0-.09,0h-.02c-.16,0-.96.04-1.61.74,0,0-.02.03-.03.04-.02,0-1.36,1.31-1.96,1.95-.45.45-1.52,1.46-2.37,1.52-.05,0-.13.01-.21.01-.58,0-1.53-.28-2.78-1.6-.69-.61-1.69-1.5-1.83-1.59-.02-.01-.04-.03-.05-.05-.28-.26-1.18-.93-2.02-.93h0c-.06,0-1.03.02-2.15,1.11,0,.02-.03.04-.05.06,0,0-2.63,2.1-4.12,3.31Z"/>
      </g>
    </g>
    <g>
      <path class="cls-3" d="m99.41,2.61c.22-.09.34-.14.53-.14.54,0,1.14.39,1.14.72,0,.11-.15.57-.18.66-.06.25-.11.74-.13,1.06.47-.13.67-.21.83-.28.51-.24.57-.26.72-.26.21,0,.58.12.58.38,0,.2-.19.28-.44.38-.36.13-.55.18-1.72.46-.02.42-.05,1.67-.05,1.99v.24c.59-.34,1.86-1.05,3.21-1.05,1.25,0,2.46.71,2.46,2.3,0,1.69-1.32,2.62-2.58,2.62-1.36,0-1.86-.87-2.08-1.24l.11-.09c.3.27.77.71,1.6.71.93,0,2.08-.65,2.08-2.11,0-1.18-.8-1.71-1.82-1.71-.43,0-1.36.01-2.98,1.1,0,.14.02,1.3.04,1.51.01.18.08.95.08,1.1,0,.52-.28,1.2-.65,1.2-.19,0-.24-.16-.35-.51-.08-.26-.18-.54-1.38-1.5-.65.58-.72.65-.91.65-.21,0-.3-.23-.3-.35,0-.17.22-.97.78-1.05.28-.05.33-.06.6-.22.24-.14,1.23-.81,1.43-.96.02-1.37.02-1.76.03-2.47-.75.15-1.26.25-1.61.25-.73,0-.9-.58-.97-.83l.12-.1c.32.25.72.25.8.25.46,0,1.38-.16,1.65-.22.04-2.09.04-2.11-.68-2.35l.02-.13Zm-.76,7.34c.18.12,1.16.81,1.22.81.08,0,.11-.06.12-.12.03-.17.03-1.23.05-1.84-.47.34-.63.48-1.38,1.14Zm5.09-6.08c.14-.02.35-.06.61-.06,1.38,0,2.37.99,2.37,1.69,0,.24-.15.4-.32.4-.11,0-.18-.03-.31-.1-.12-.06-.2-.09-.34-.09-.26,0-.92.2-1.04.24l-.08-.12c.27-.18.9-.57.9-.76,0-.2-.39-.85-1.81-1.06v-.14Z"/>
      <path class="cls-3" d="m119.55,10.5c-.72,0-2.28-1.34-3.09-2.19-.72-.75-1.71-1.85-2.17-2.43-.43-.53-.6-.64-.78-.64-.33,0-.74.55-1.31,1.32-.41.58-.47.66-1.27,1.9-.08.14-.24.35-.53.35-.65,0-1.09-.79-1.09-1.07v-.18l.12-.08c.14.14.33.27.52.27.33,0,.52-.21,1.25-1.09,1.52-1.81,1.79-1.98,2.34-1.98s.66.15,1.98,1.53c2.2,2.3,2.72,2.55,3.78,3.07.29.14.63.46.63.83,0,.34-.29.39-.37.39Zm-1.48-4.39c-.19,0-.24-.07-.51-.46-.57-.83-1.28-1.27-1.5-1.42l.1-.14c1.26.23,2.24.99,2.24,1.59,0,.27-.18.42-.33.42Zm1.11-1.05c-.18,0-.24-.07-.52-.44-.61-.78-1.26-1.16-1.57-1.33l.07-.14c1.22.13,2.34.87,2.34,1.5,0,.26-.16.41-.32.41Z"/>
      <path class="cls-3" d="m126.28,2.28c.21-.02.24-.02.3-.02.64,0,1.16.71,1.16,1.05,0,.18-.05.27-.27.52-.2.22-.35.47-.62.97-.37.65-1.04,1.92-1.72,3.2.59-.57,1.26-1.19,2.27-1.19.65,0,1.44.35,1.44,1.32,0,.13-.05.55-.1,1.04-.06.44-.12.98-.12,1.12,0,.15,0,.77.66.77,1.09,0,2.34-1.29,3-2.2l.13.07c-.9,2.47-2.51,2.99-3.27,2.99-.52,0-1.34-.26-1.34-1.44,0-.18.07-.83.13-1.31.06-.48.09-.83.09-.98,0-.93-.73-.93-.8-.93-.37,0-2.15.26-3.55,4.14-.11.28-.21.59-.47.59-.38,0-.44-.66-.44-.8,0-.24.05-.32.49-1.03.64-.99,3.41-6.41,3.41-7.13,0-.29-.22-.47-.4-.6l.05-.14Z"/>
      <path class="cls-3" d="m136.39,2.52c.2-.1.31-.14.5-.14.58,0,1.24.51,1.24.83,0,.09-.13.51-.14.59-.03.21-.03.68-.03,1.07,0,.89.11,1.25.32,1.54.91-.43,1.04-.47,2.21-.93.16-.07.91-.45,1.08-.45.31,0,.81.29.81.6,0,.25-.19.28-.62.38-.23.05-6.32,1.51-6.32,3.66,0,1.49,2.41,1.49,3.11,1.49.78,0,1.69-.09,2.35-.21.17-.04.85-.2.99-.2.41,0,.86.28.86.57s-.27.4-1.19.47c-.54.05-1.63.13-2.71.13-1.2,0-2.15-.14-2.83-.51-.76-.4-1.1-1.1-1.1-1.67,0-1.55,1.75-2.5,2.74-3.02-.46-.48-.47-.94-.5-2.09-.04-1.51-.1-1.72-.79-1.96l.02-.14Z"/>
      <path class="cls-3" d="m147.44,12.39c2.56-.87,4.27-2.45,4.27-4.76,0-1.13-.46-2.05-1.63-2.05s-2.37.85-3.2,1.56c-.47.4-.52.45-.74.45-.39,0-.8-.4-.8-.88,0-.06.01-.16.05-.24.11-.24.13-.26.14-.31l.14-.02c.04.19.12.39.32.39.15,0,.32-.08.62-.23,1.65-.81,2.38-1.16,3.43-1.16,1.43,0,2.56.82,2.56,2.65,0,2.1-1.45,4.21-5.12,4.73l-.04-.14Zm-.2-10.17c.72.53,1.39.57,2.98.63,1.01.05,1.01.65,1.01.67,0,.29-.25.31-.73.31-.43,0-.76.02-2.21.57l-.05-.12c.18-.12.96-.64.96-.68,0-.08-.04-.09-.34-.13-.22-.04-1.33-.19-1.75-1.16l.12-.08Z"/>
      <path class="cls-3" d="m160.45,11.77c.72-.26,3.9-1.42,3.9-4.64,0-1.91-1.26-3.3-3.42-3.3-.33,0-.52.03-.64.04.12.11.58.5.58.93,0,.49-1.06,2.96-1.34,3.6-.67,1.53-1.19,2.55-1.96,2.55-.97,0-1.85-1.22-1.85-2.75,0-2.45,2.17-4.77,5.28-4.77,2.24,0,4.27,1.32,4.27,3.85s-1.94,4.27-4.77,4.63l-.04-.14Zm-4.01-3.59c0,1.12.56,2.02,1.01,2.02s.73-.61,1.32-1.89c.08-.17,1.3-2.89,1.3-3.67,0-.32-.14-.55-.21-.68-2.39.58-3.42,2.68-3.42,4.23Z"/>
    </g>
  </g>
</svg>